<svg width="15" height="15" viewBox="0 0 15 15" fill="none" xmlns="http://www.w3.org/2000/svg">
<path d="M7.20404 2H8.38789V6.26073C8.38789 7.70851 8.28102 8.96745 8.06727 10.0376C7.86173 11.0998 7.46712 12.0873 6.88341 13L6.21749 12.3391V12.3627H3.55381V12.8348H2.40695V8.92811H6.21749V11.5129C6.62855 10.7024 6.89574 9.84084 7.01906 8.92811C7.14238 8.01538 7.20404 6.80365 7.20404 5.29292V2ZM11.7668 12.8348V2H13V12.8348H11.7668ZM2.43161 2.28326H6.20516V3.33369H2.43161V2.28326ZM10.6323 12.3745H9.4361V2.29506H10.6323V12.3745ZM2 3.94743H6.55045V5.04506H2V3.94743ZM2.48094 5.63519H6.1435V6.69743H2.48094V5.63519ZM6.1435 8.33798H2.48094V7.27575H6.1435V8.33798ZM3.55381 11.3358H5.09529V9.94313H3.55381V11.3358Z" fill="black"/>
<path d="M2.14286 0.3H12.8571C13.8749 0.3 14.7 1.12508 14.7 2.14286V12.8571C14.7 13.8749 13.8749 14.7 12.8571 14.7H2.14286C1.12508 14.7 0.3 13.8749 0.3 12.8571V2.14286C0.3 1.12508 1.12508 0.3 2.14286 0.3Z" stroke="black" stroke-width="0.6"/>
</svg>
