<svg width="15" height="15" viewBox="0 0 15 15" fill="none" xmlns="http://www.w3.org/2000/svg">
<path d="M13 5.58279V6.72113H2V5.58279H4.7135C4.5837 5.2313 4.36468 4.79194 4.05642 4.26471L5.29757 3.89325H2.36504V2.77887H6.72124V2H8.08407V2.77887H12.635V3.89325H9.77544L10.9923 4.24074C10.684 4.82389 10.4285 5.27124 10.2257 5.58279H13ZM5.34624 3.89325C5.47603 4.09296 5.61394 4.35258 5.75996 4.67211C5.91409 4.99165 6.00332 5.17938 6.02765 5.23529L4.81084 5.58279H8.81416C9.05752 5.17538 9.3455 4.6122 9.6781 3.89325H5.34624ZM4.50664 13H3.20465V7.46405H11.8075V13H10.4934V12.4248H4.50664V13ZM10.4934 9.40523V8.5305H4.50664V9.40523H10.4934ZM4.50664 10.4237V11.3344H10.4934V10.4237H4.50664Z" fill="black"/>
<path d="M2.14286 0.3H12.8571C13.8749 0.3 14.7 1.12508 14.7 2.14286V12.8571C14.7 13.8749 13.8749 14.7 12.8571 14.7H2.14286C1.12508 14.7 0.3 13.8749 0.3 12.8571V2.14286C0.3 1.12508 1.12508 0.3 2.14286 0.3Z" stroke="black" stroke-width="0.6"/>
</svg>
